<svg width="21" height="20" viewBox="0 0 21 20" fill="none" xmlns="http://www.w3.org/2000/svg">
<path fill-rule="evenodd" clip-rule="evenodd" d="M10.5001 18.3333C15.1025 18.3333 18.8334 14.6023 18.8334 9.99996C18.8334 5.39759 15.1025 1.66663 10.5001 1.66663C5.89771 1.66663 2.16675 5.39759 2.16675 9.99996C2.16675 14.6023 5.89771 18.3333 10.5001 18.3333ZM15.7666 14.0881C16.6442 12.9592 17.1667 11.5406 17.1667 9.99996C17.1667 6.60028 14.622 3.79495 11.3334 3.38487V6.77164C12.7711 7.14168 13.8334 8.44676 13.8334 9.99996C13.8334 10.6182 13.6651 11.1971 13.3719 11.6933L15.7666 14.0881ZM14.588 15.2666L12.1933 12.8718C11.6971 13.165 11.1182 13.3333 10.5001 13.3333C9.88194 13.3333 9.3031 13.165 8.80685 12.8718L6.41212 15.2666C7.54101 16.1441 8.95952 16.6666 10.5001 16.6666C12.0406 16.6666 13.4592 16.1441 14.588 15.2666ZM7.16675 9.99996C7.16675 10.6182 7.33504 11.1971 7.62831 11.6933L5.23359 14.0881C4.356 12.9592 3.83341 11.5406 3.83341 9.99996C3.83341 6.60028 6.37815 3.79495 9.66675 3.38487V6.77164C8.22906 7.14168 7.16675 8.44676 7.16675 9.99996ZM10.5001 11.6666C11.4206 11.6666 12.1667 10.9204 12.1667 9.99996C12.1667 9.07948 11.4206 8.33329 10.5001 8.33329C9.57961 8.33329 8.83341 9.07948 8.83341 9.99996C8.83341 10.9204 9.57961 11.6666 10.5001 11.6666Z" fill="#72767C"/>
</svg>
