<svg width="30" height="31" viewBox="0 0 30 31" fill="none" xmlns="http://www.w3.org/2000/svg">
<path fill-rule="evenodd" clip-rule="evenodd" d="M6.29376 10.668C5.04617 10.668 4.03479 11.6794 4.03479 12.927V21.7795C4.03479 23.4336 4.03479 24.2607 4.54866 24.7745C5.06252 25.2884 5.88957 25.2884 7.54368 25.2884H22.4565C24.1106 25.2884 24.9376 25.2884 25.4515 24.7745C25.9654 24.2607 25.9654 23.4336 25.9654 21.7795V12.927C25.9654 11.6794 24.954 10.668 23.7064 10.668C22.8508 10.668 22.0686 10.1846 21.6859 9.41929L20.5201 7.08767L20.5201 7.08765C20.2055 6.4585 20.0482 6.14392 19.7656 5.96924C19.4829 5.79456 19.1312 5.79456 18.4278 5.79456H11.5724C10.8689 5.79456 10.5172 5.79456 10.2346 5.96924C9.95193 6.14392 9.79464 6.4585 9.48006 7.08767L8.31425 9.41929C7.9316 10.1846 7.1494 10.668 6.29376 10.668ZM18.7039 16.7598C18.7039 18.8054 17.0456 20.4636 15.0001 20.4636C12.9545 20.4636 11.2962 18.8054 11.2962 16.7598C11.2962 14.7143 12.9545 13.056 15.0001 13.056C17.0456 13.056 18.7039 14.7143 18.7039 16.7598ZM19.8735 16.7598C19.8735 19.4514 17.6916 21.6333 15.0001 21.6333C12.3085 21.6333 10.1266 19.4514 10.1266 16.7598C10.1266 14.0683 12.3085 11.8864 15.0001 11.8864C17.6916 11.8864 19.8735 14.0683 19.8735 16.7598Z" fill="#FF7E86"/>
</svg>
