<svg width="20" height="20" viewBox="0 0 20 20" fill="none" xmlns="http://www.w3.org/2000/svg">
<path fill-rule="evenodd" clip-rule="evenodd" d="M14.5833 12.5C14.2065 12.5 13.6741 12.5521 13.1198 12.628C12.8609 12.6635 12.6634 12.8609 12.628 13.1199C12.5521 13.6741 12.5 14.2066 12.5 14.5834C12.5 14.9602 12.5521 15.4926 12.628 16.0469C12.6634 16.3058 12.8609 16.5032 13.1198 16.5387C13.6741 16.6146 14.2065 16.6667 14.5833 16.6667C14.9601 16.6667 15.4925 16.6146 16.0468 16.5387C16.3057 16.5032 16.5032 16.3058 16.5387 16.0469C16.6146 15.4926 16.6666 14.9602 16.6666 14.5834C16.6666 14.2066 16.6146 13.6741 16.5387 13.1199C16.5032 12.8609 16.3057 12.6635 16.0468 12.628C15.4925 12.5521 14.9601 12.5 14.5833 12.5ZM12.8937 10.9768C11.8938 11.1137 11.1137 11.8938 10.9767 12.8937C10.8982 13.4672 10.8333 14.0902 10.8333 14.5834C10.8333 15.0766 10.8982 15.6995 10.9767 16.273C11.1137 17.2729 11.8938 18.053 12.8937 18.19C13.4672 18.2685 14.0901 18.3334 14.5833 18.3334C15.0765 18.3334 15.6994 18.2685 16.273 18.19C17.2729 18.053 18.053 17.2729 18.1899 16.273C18.2684 15.6995 18.3333 15.0766 18.3333 14.5834C18.3333 14.0902 18.2684 13.4672 18.1899 12.8937C18.053 11.8938 17.2729 11.1137 16.273 10.9768C15.6994 10.8982 15.0765 10.8334 14.5833 10.8334C14.0901 10.8334 13.4672 10.8982 12.8937 10.9768Z" fill="#72767C"/>
<path fill-rule="evenodd" clip-rule="evenodd" d="M5.41669 12.5C5.03987 12.5 4.50746 12.5521 3.9532 12.628C3.69426 12.6635 3.49681 12.8609 3.46135 13.1199C3.38544 13.6741 3.33335 14.2066 3.33335 14.5834C3.33335 14.9602 3.38544 15.4926 3.46135 16.0469C3.49681 16.3058 3.69426 16.5032 3.9532 16.5387C4.50746 16.6146 5.03987 16.6667 5.41669 16.6667C5.7935 16.6667 6.32592 16.6146 6.88018 16.5387C7.13912 16.5032 7.33656 16.3058 7.37203 16.0469C7.44793 15.4926 7.50002 14.9602 7.50002 14.5834C7.50002 14.2066 7.44793 13.6741 7.37203 13.1199C7.33656 12.8609 7.13912 12.6635 6.88018 12.628C6.32592 12.5521 5.7935 12.5 5.41669 12.5ZM3.72705 10.9768C2.72713 11.1137 1.94704 11.8938 1.8101 12.8937C1.73155 13.4672 1.66669 14.0902 1.66669 14.5834C1.66669 15.0766 1.73155 15.6995 1.8101 16.273C1.94704 17.2729 2.72713 18.053 3.72705 18.19C4.30056 18.2685 4.92349 18.3334 5.41669 18.3334C5.90989 18.3334 6.53282 18.2685 7.10632 18.19C8.10624 18.053 8.88633 17.2729 9.02328 16.273C9.10182 15.6995 9.16669 15.0766 9.16669 14.5834C9.16669 14.0902 9.10182 13.4672 9.02328 12.8937C8.88633 11.8938 8.10624 11.1137 7.10632 10.9768C6.53282 10.8982 5.90989 10.8334 5.41669 10.8334C4.92349 10.8334 4.30056 10.8982 3.72705 10.9768Z" fill="#72767C"/>
<path fill-rule="evenodd" clip-rule="evenodd" d="M14.5833 3.33329C14.2065 3.33329 13.6741 3.38538 13.1198 3.46129C12.8609 3.49675 12.6634 3.6942 12.628 3.95314C12.5521 4.5074 12.5 5.03981 12.5 5.41663C12.5 5.79344 12.5521 6.32585 12.628 6.88012C12.6634 7.13906 12.8609 7.3365 13.1198 7.37196C13.6741 7.44787 14.2065 7.49996 14.5833 7.49996C14.9601 7.49996 15.4925 7.44787 16.0468 7.37196C16.3057 7.3365 16.5032 7.13906 16.5387 6.88012C16.6146 6.32585 16.6666 5.79344 16.6666 5.41663C16.6666 5.03981 16.6146 4.5074 16.5387 3.95314C16.5032 3.6942 16.3057 3.49675 16.0468 3.46129C15.4925 3.38538 14.9601 3.33329 14.5833 3.33329ZM12.8937 1.81004C11.8938 1.94698 11.1137 2.72707 10.9767 3.72699C10.8982 4.3005 10.8333 4.92343 10.8333 5.41663C10.8333 5.90983 10.8982 6.53275 10.9767 7.10626C11.1137 8.10618 11.8938 8.88627 12.8937 9.02322C13.4672 9.10176 14.0901 9.16663 14.5833 9.16663C15.0765 9.16663 15.6994 9.10176 16.273 9.02322C17.2729 8.88627 18.053 8.10618 18.1899 7.10626C18.2684 6.53275 18.3333 5.90983 18.3333 5.41663C18.3333 4.92343 18.2684 4.3005 18.1899 3.72699C18.053 2.72707 17.2729 1.94698 16.273 1.81004C15.6994 1.73149 15.0765 1.66663 14.5833 1.66663C14.0901 1.66663 13.4672 1.73149 12.8937 1.81004Z" fill="#72767C"/>
<path fill-rule="evenodd" clip-rule="evenodd" d="M5.41669 3.33329C5.03987 3.33329 4.50746 3.38538 3.9532 3.46129C3.69426 3.49675 3.49681 3.6942 3.46135 3.95314C3.38544 4.5074 3.33335 5.03981 3.33335 5.41663C3.33335 5.79344 3.38544 6.32585 3.46135 6.88012C3.49681 7.13906 3.69426 7.3365 3.9532 7.37196C4.50746 7.44787 5.03987 7.49996 5.41669 7.49996C5.7935 7.49996 6.32592 7.44787 6.88018 7.37196C7.13912 7.3365 7.33656 7.13906 7.37203 6.88012C7.44793 6.32585 7.50002 5.79344 7.50002 5.41663C7.50002 5.03981 7.44793 4.5074 7.37203 3.95314C7.33656 3.6942 7.13912 3.49675 6.88018 3.46129C6.32592 3.38538 5.7935 3.33329 5.41669 3.33329ZM3.72705 1.81004C2.72713 1.94698 1.94704 2.72707 1.8101 3.72699C1.73155 4.3005 1.66669 4.92343 1.66669 5.41663C1.66669 5.90983 1.73155 6.53275 1.8101 7.10626C1.94704 8.10618 2.72713 8.88627 3.72705 9.02322C4.30056 9.10176 4.92349 9.16663 5.41669 9.16663C5.90989 9.16663 6.53282 9.10176 7.10632 9.02322C8.10624 8.88627 8.88633 8.10618 9.02328 7.10626C9.10182 6.53275 9.16669 5.90983 9.16669 5.41663C9.16669 4.92343 9.10182 4.3005 9.02328 3.72699C8.88633 2.72707 8.10624 1.94698 7.10632 1.81004C6.53282 1.73149 5.90989 1.66663 5.41669 1.66663C4.92349 1.66663 4.30056 1.73149 3.72705 1.81004Z" fill="#72767C"/>
</svg>
