<svg width="21" height="20" viewBox="0 0 21 20" fill="none" xmlns="http://www.w3.org/2000/svg">
<path fill-rule="evenodd" clip-rule="evenodd" d="M15.0833 12.5C14.7064 12.5 14.174 12.5521 13.6198 12.628C13.3608 12.6635 13.1634 12.8609 13.1279 13.1199C13.052 13.6741 12.9999 14.2066 12.9999 14.5834C12.9999 14.9602 13.052 15.4926 13.1279 16.0469C13.1634 16.3058 13.3608 16.5032 13.6198 16.5387C14.174 16.6146 14.7064 16.6667 15.0833 16.6667C15.4601 16.6667 15.9925 16.6146 16.5467 16.5387C16.8057 16.5032 17.0031 16.3058 17.0386 16.0469C17.1145 15.4926 17.1666 14.9602 17.1666 14.5834C17.1666 14.2066 17.1145 13.6741 17.0386 13.1199C17.0031 12.8609 16.8057 12.6635 16.5467 12.628C15.9925 12.5521 15.4601 12.5 15.0833 12.5ZM13.3936 10.9768C12.3937 11.1137 11.6136 11.8938 11.4767 12.8937C11.3981 13.4672 11.3333 14.0902 11.3333 14.5834C11.3333 15.0766 11.3981 15.6995 11.4767 16.273C11.6136 17.2729 12.3937 18.053 13.3936 18.19C13.9671 18.2685 14.5901 18.3334 15.0833 18.3334C15.5765 18.3334 16.1994 18.2685 16.7729 18.19C17.7728 18.053 18.5529 17.2729 18.6898 16.273C18.7684 15.6995 18.8333 15.0766 18.8333 14.5834C18.8333 14.0902 18.7684 13.4672 18.6898 12.8937C18.5529 11.8938 17.7728 11.1137 16.7729 10.9768C16.1994 10.8982 15.5765 10.8334 15.0833 10.8334C14.5901 10.8334 13.9671 10.8982 13.3936 10.9768Z" fill="white"/>
<path fill-rule="evenodd" clip-rule="evenodd" d="M5.91675 12.5C5.53993 12.5 5.00752 12.5521 4.45326 12.628C4.19432 12.6635 3.99687 12.8609 3.96141 13.1199C3.8855 13.6741 3.83341 14.2066 3.83341 14.5834C3.83341 14.9602 3.8855 15.4926 3.96141 16.0469C3.99687 16.3058 4.19432 16.5032 4.45326 16.5387C5.00752 16.6146 5.53993 16.6667 5.91675 16.6667C6.29357 16.6667 6.82598 16.6146 7.38024 16.5387C7.63918 16.5032 7.83662 16.3058 7.87209 16.0469C7.94799 15.4926 8.00008 14.9602 8.00008 14.5834C8.00008 14.2066 7.94799 13.6741 7.87209 13.1199C7.83662 12.8609 7.63918 12.6635 7.38024 12.628C6.82598 12.5521 6.29357 12.5 5.91675 12.5ZM4.22711 10.9768C3.22719 11.1137 2.4471 11.8938 2.31016 12.8937C2.23161 13.4672 2.16675 14.0902 2.16675 14.5834C2.16675 15.0766 2.23161 15.6995 2.31016 16.273C2.4471 17.2729 3.22719 18.053 4.22711 18.19C4.80062 18.2685 5.42355 18.3334 5.91675 18.3334C6.40995 18.3334 7.03288 18.2685 7.60639 18.19C8.6063 18.053 9.3864 17.2729 9.52334 16.273C9.60188 15.6995 9.66675 15.0766 9.66675 14.5834C9.66675 14.0902 9.60188 13.4672 9.52334 12.8937C9.3864 11.8938 8.6063 11.1137 7.60639 10.9768C7.03288 10.8982 6.40995 10.8334 5.91675 10.8334C5.42355 10.8334 4.80062 10.8982 4.22711 10.9768Z" fill="white"/>
<path fill-rule="evenodd" clip-rule="evenodd" d="M15.0833 3.33329C14.7064 3.33329 14.174 3.38538 13.6198 3.46129C13.3608 3.49675 13.1634 3.6942 13.1279 3.95314C13.052 4.5074 12.9999 5.03981 12.9999 5.41663C12.9999 5.79344 13.052 6.32585 13.1279 6.88012C13.1634 7.13906 13.3608 7.3365 13.6198 7.37196C14.174 7.44787 14.7064 7.49996 15.0833 7.49996C15.4601 7.49996 15.9925 7.44787 16.5467 7.37196C16.8057 7.3365 17.0031 7.13906 17.0386 6.88012C17.1145 6.32585 17.1666 5.79344 17.1666 5.41663C17.1666 5.03981 17.1145 4.5074 17.0386 3.95314C17.0031 3.6942 16.8057 3.49675 16.5467 3.46129C15.9925 3.38538 15.4601 3.33329 15.0833 3.33329ZM13.3936 1.81004C12.3937 1.94698 11.6136 2.72707 11.4767 3.72699C11.3981 4.3005 11.3333 4.92343 11.3333 5.41663C11.3333 5.90983 11.3981 6.53275 11.4767 7.10626C11.6136 8.10618 12.3937 8.88627 13.3936 9.02322C13.9671 9.10176 14.5901 9.16663 15.0833 9.16663C15.5765 9.16663 16.1994 9.10176 16.7729 9.02322C17.7728 8.88627 18.5529 8.10618 18.6898 7.10626C18.7684 6.53275 18.8333 5.90983 18.8333 5.41663C18.8333 4.92343 18.7684 4.3005 18.6898 3.72699C18.5529 2.72707 17.7728 1.94698 16.7729 1.81004C16.1994 1.73149 15.5765 1.66663 15.0833 1.66663C14.5901 1.66663 13.9671 1.73149 13.3936 1.81004Z" fill="white"/>
<path fill-rule="evenodd" clip-rule="evenodd" d="M5.91675 3.33329C5.53993 3.33329 5.00752 3.38538 4.45326 3.46129C4.19432 3.49675 3.99687 3.6942 3.96141 3.95314C3.8855 4.5074 3.83341 5.03981 3.83341 5.41663C3.83341 5.79344 3.8855 6.32585 3.96141 6.88012C3.99687 7.13906 4.19432 7.3365 4.45326 7.37196C5.00752 7.44787 5.53993 7.49996 5.91675 7.49996C6.29357 7.49996 6.82598 7.44787 7.38024 7.37196C7.63918 7.3365 7.83662 7.13906 7.87209 6.88012C7.94799 6.32585 8.00008 5.79344 8.00008 5.41663C8.00008 5.03981 7.94799 4.5074 7.87209 3.95314C7.83662 3.6942 7.63918 3.49675 7.38024 3.46129C6.82598 3.38538 6.29357 3.33329 5.91675 3.33329ZM4.22711 1.81004C3.22719 1.94698 2.4471 2.72707 2.31016 3.72699C2.23161 4.3005 2.16675 4.92343 2.16675 5.41663C2.16675 5.90983 2.23161 6.53275 2.31016 7.10626C2.4471 8.10618 3.22719 8.88627 4.22711 9.02322C4.80062 9.10176 5.42355 9.16663 5.91675 9.16663C6.40995 9.16663 7.03288 9.10176 7.60639 9.02322C8.6063 8.88627 9.3864 8.10618 9.52334 7.10626C9.60188 6.53275 9.66675 5.90983 9.66675 5.41663C9.66675 4.92343 9.60188 4.3005 9.52334 3.72699C9.3864 2.72707 8.6063 1.94698 7.60639 1.81004C7.03288 1.73149 6.40995 1.66663 5.91675 1.66663C5.42355 1.66663 4.80062 1.73149 4.22711 1.81004Z" fill="white"/>
</svg>
