<svg width="66" height="19" viewBox="0 0 66 19" fill="none" xmlns="http://www.w3.org/2000/svg">
<path d="M0.108 18V1.2H3.348V15.48H10.716V18H0.108ZM19.8165 18.288C18.1525 18.288 16.6885 17.92 15.4245 17.184C14.1605 16.448 13.1685 15.432 12.4485 14.136C11.7445 12.824 11.3925 11.312 11.3925 9.6C11.3925 7.888 11.7445 6.384 12.4485 5.088C13.1685 3.776 14.1605 2.752 15.4245 2.016C16.6885 1.28 18.1525 0.912 19.8165 0.912C21.4805 0.912 22.9445 1.28 24.2085 2.016C25.4885 2.752 26.4805 3.776 27.1845 5.088C27.9045 6.384 28.2645 7.888 28.2645 9.6C28.2645 11.312 27.9045 12.824 27.1845 14.136C26.4805 15.432 25.4885 16.448 24.2085 17.184C22.9445 17.92 21.4805 18.288 19.8165 18.288ZM19.8165 15.384C20.8565 15.384 21.7605 15.152 22.5285 14.688C23.2965 14.208 23.8885 13.536 24.3045 12.672C24.7365 11.808 24.9525 10.784 24.9525 9.6C24.9525 8.4 24.7365 7.376 24.3045 6.528C23.8885 5.664 23.2965 5 22.5285 4.536C21.7605 4.072 20.8565 3.84 19.8165 3.84C18.7765 3.84 17.8725 4.072 17.1045 4.536C16.3365 5 15.7365 5.664 15.3045 6.528C14.8885 7.376 14.6805 8.4 14.6805 9.6C14.6805 10.784 14.8885 11.808 15.3045 12.672C15.7365 13.536 16.3365 14.208 17.1045 14.688C17.8725 15.152 18.7765 15.384 19.8165 15.384ZM38.2963 18.288C36.7123 18.288 35.3283 17.936 34.1443 17.232C32.9603 16.512 32.0403 15.512 31.3843 14.232C30.7283 12.936 30.4003 11.432 30.4003 9.72C30.4003 7.992 30.7363 6.472 31.4083 5.16C32.0803 3.832 33.0483 2.792 34.3123 2.04C35.5763 1.288 37.0883 0.912 38.8483 0.912C40.8163 0.912 42.4483 1.384 43.7443 2.328C45.0563 3.272 45.9043 4.584 46.2883 6.264H42.6643C42.4243 5.528 41.9763 4.952 41.3203 4.536C40.6803 4.104 39.8483 3.888 38.8243 3.888C37.7363 3.888 36.8083 4.128 36.0403 4.608C35.2723 5.088 34.6883 5.76 34.2883 6.624C33.8883 7.488 33.6883 8.52 33.6883 9.72C33.6883 10.936 33.8883 11.968 34.2883 12.816C34.6883 13.664 35.2563 14.312 35.9923 14.76C36.7443 15.192 37.6243 15.408 38.6323 15.408C40.1043 15.408 41.2163 15.016 41.9683 14.232C42.7363 13.432 43.1923 12.4 43.3363 11.136H39.2083V8.712H46.6003V18H43.6003L43.3603 15.864C43.0083 16.392 42.5923 16.84 42.1123 17.208C41.6483 17.56 41.1043 17.824 40.4803 18C39.8563 18.192 39.1283 18.288 38.2963 18.288ZM57.4337 18.288C55.7697 18.288 54.3057 17.92 53.0417 17.184C51.7777 16.448 50.7857 15.432 50.0657 14.136C49.3617 12.824 49.0097 11.312 49.0097 9.6C49.0097 7.888 49.3617 6.384 50.0657 5.088C50.7857 3.776 51.7777 2.752 53.0417 2.016C54.3057 1.28 55.7697 0.912 57.4337 0.912C59.0977 0.912 60.5617 1.28 61.8257 2.016C63.1057 2.752 64.0977 3.776 64.8017 5.088C65.5217 6.384 65.8817 7.888 65.8817 9.6C65.8817 11.312 65.5217 12.824 64.8017 14.136C64.0977 15.432 63.1057 16.448 61.8257 17.184C60.5617 17.92 59.0977 18.288 57.4337 18.288ZM57.4337 15.384C58.4737 15.384 59.3777 15.152 60.1457 14.688C60.9137 14.208 61.5057 13.536 61.9217 12.672C62.3537 11.808 62.5697 10.784 62.5697 9.6C62.5697 8.4 62.3537 7.376 61.9217 6.528C61.5057 5.664 60.9137 5 60.1457 4.536C59.3777 4.072 58.4737 3.84 57.4337 3.84C56.3937 3.84 55.4897 4.072 54.7217 4.536C53.9537 5 53.3537 5.664 52.9217 6.528C52.5057 7.376 52.2977 8.4 52.2977 9.6C52.2977 10.784 52.5057 11.808 52.9217 12.672C53.3537 13.536 53.9537 14.208 54.7217 14.688C55.4897 15.152 56.3937 15.384 57.4337 15.384Z" fill="white"/>
</svg>
