<svg width="21" height="20" viewBox="0 0 21 20" fill="none" xmlns="http://www.w3.org/2000/svg">
<path fill-rule="evenodd" clip-rule="evenodd" d="M9.69107 12.5005C10.151 12.4831 10.5379 12.8419 10.5552 13.3018C10.5944 14.3386 10.6494 15.0954 10.7034 15.6379C10.7566 16.1723 11.0792 16.4938 11.5289 16.5487C12.0591 16.6135 12.807 16.6666 13.8334 16.6666C14.8598 16.6666 15.6078 16.6135 16.138 16.5487C16.5874 16.4938 16.9101 16.1721 16.9634 15.6377C17.0637 14.6306 17.1667 12.8906 17.1667 9.99992C17.1667 7.10924 17.0637 5.36926 16.9634 4.36215C16.9101 3.82769 16.5874 3.50606 16.138 3.45111C15.6078 3.3863 14.8598 3.33325 13.8334 3.33325C12.807 3.33325 12.0591 3.38629 11.5289 3.45111C11.0792 3.50607 10.7566 3.82757 10.7034 4.36189C10.6494 4.90446 10.5944 5.6612 10.5552 6.69802C10.5379 7.15793 10.151 7.51669 9.69107 7.49932C9.23116 7.48196 8.8724 7.09506 8.88976 6.63515C8.92994 5.57095 8.9869 4.77944 9.04495 4.19668C9.167 2.97154 10.0212 1.95634 11.3266 1.79676C11.9343 1.72247 12.7507 1.66658 13.8334 1.66658C14.9161 1.66658 15.7325 1.72248 16.3402 1.79676C17.6458 1.95637 18.4998 2.97204 18.6218 4.19694C18.7293 5.27548 18.8334 7.07365 18.8334 9.99992C18.8334 12.9262 18.7293 14.7244 18.6218 15.8029C18.4998 17.0278 17.6458 18.0435 16.3402 18.2031C15.7325 18.2774 14.9161 18.3333 13.8334 18.3333C12.7507 18.3333 11.9343 18.2774 11.3266 18.2031C10.0212 18.0435 9.167 17.0283 9.04495 15.8032C8.9869 15.2204 8.92994 14.4289 8.88976 13.3647C8.8724 12.9048 9.23116 12.5179 9.69107 12.5005Z" fill="#72767C"/>
<path fill-rule="evenodd" clip-rule="evenodd" d="M6.506 12.3274C6.83144 12.6528 6.83144 13.1805 6.506 13.5059C6.18057 13.8314 5.65293 13.8314 5.32749 13.5059L2.41083 10.5893C2.08539 10.2638 2.08539 9.73618 2.41083 9.41074L5.32749 6.49408C5.65293 6.16864 6.18057 6.16864 6.506 6.49408C6.83144 6.81951 6.83144 7.34715 6.506 7.67259L5.01193 9.16667H13.0001C13.4603 9.16667 13.8334 9.53976 13.8334 10C13.8334 10.4602 13.4603 10.8333 13.0001 10.8333L5.01193 10.8333L6.506 12.3274Z" fill="#72767C"/>
</svg>
