<svg width="45" height="45" viewBox="0 0 45 45" fill="none" xmlns="http://www.w3.org/2000/svg">
<rect x="0.228271" y="0.94165" width="44.0583" height="44.0583" rx="22.0292" fill="#1F2128"/>
<path d="M16.4672 24.7609L15.6672 23.9709L20.2572 23.9709C20.5224 23.9709 20.7768 23.8655 20.9643 23.678C21.1519 23.4905 21.2572 23.2361 21.2572 22.9709C21.2572 22.7057 21.1519 22.4513 20.9643 22.2638C20.7768 22.0762 20.5224 21.9709 20.2572 21.9709L15.6672 21.9709L16.4672 21.1809C16.5609 21.0879 16.6353 20.9773 16.6861 20.8555C16.7369 20.7336 16.763 20.6029 16.763 20.4709C16.763 20.3389 16.7369 20.2082 16.6861 20.0863C16.6353 19.9644 16.5609 19.8538 16.4672 19.7609C16.3743 19.6672 16.2637 19.5928 16.1418 19.542C16.0199 19.4912 15.8892 19.4651 15.7572 19.4651C15.6252 19.4651 15.4945 19.4912 15.3726 19.542C15.2508 19.5928 15.1402 19.6672 15.0472 19.7609L12.5472 22.2609C12.4562 22.356 12.3848 22.4681 12.3372 22.5909C12.2372 22.8343 12.2372 23.1074 12.3372 23.3509C12.3848 23.4736 12.4562 23.5858 12.5472 23.6809L15.0472 26.1809C15.2355 26.3692 15.4909 26.475 15.7572 26.475C16.0235 26.475 16.2789 26.3692 16.4672 26.1809C16.6555 25.9926 16.7613 25.7372 16.7613 25.4709C16.7613 25.2046 16.6555 24.9492 16.4672 24.7609ZM28.0472 21.1809L28.8472 21.9709L24.2572 21.9709C23.992 21.9709 23.7376 22.0762 23.5501 22.2638C23.3626 22.4513 23.2572 22.7057 23.2572 22.9709C23.2572 23.2361 23.3626 23.4905 23.5501 23.678C23.7376 23.8655 23.992 23.9709 24.2572 23.9709L28.8472 23.9709L28.0472 24.7609C27.954 24.8541 27.88 24.9648 27.8296 25.0866C27.7791 25.2085 27.7531 25.339 27.7531 25.4709C27.7531 25.6027 27.7791 25.7333 27.8296 25.8551C27.88 25.977 27.954 26.0876 28.0472 26.1809C28.1405 26.2741 28.2512 26.3481 28.373 26.3985C28.4948 26.449 28.6254 26.475 28.7572 26.475C28.8891 26.475 29.0196 26.449 29.1415 26.3985C29.2633 26.3481 29.374 26.2741 29.4672 26.1809L31.9672 23.6809C32.0583 23.5858 32.1296 23.4736 32.1772 23.3509C32.2301 23.2312 32.2575 23.1018 32.2575 22.9709C32.2575 22.84 32.2301 22.7106 32.1772 22.5909C32.1296 22.4681 32.0583 22.356 31.9672 22.2609L29.4672 19.7609C29.2789 19.5726 29.0235 19.4668 28.7572 19.4668C28.4909 19.4668 28.2355 19.5726 28.0472 19.7609C27.8589 19.9492 27.7531 20.2046 27.7531 20.4709C27.7531 20.7372 27.8589 20.9926 28.0472 21.1809Z" fill="white"/>
</svg>
