<svg width="51" height="48" viewBox="0 0 51 48" fill="none" xmlns="http://www.w3.org/2000/svg">
<rect x="0.320801" width="50" height="48" rx="24" fill="#242731"/>
<path fill-rule="evenodd" clip-rule="evenodd" d="M17.5476 16.2268C17.8499 15.9244 18.3401 15.9244 18.6424 16.2268L25.3208 22.9051L31.9992 16.2268C32.3015 15.9244 32.7917 15.9244 33.094 16.2268C33.3964 16.5291 33.3964 17.0193 33.094 17.3216L26.4157 24L33.094 30.6784C33.3964 30.9807 33.3964 31.4709 33.094 31.7732C32.7917 32.0756 32.3015 32.0756 31.9992 31.7732L25.3208 25.0949L18.6424 31.7732C18.3401 32.0756 17.8499 32.0756 17.5476 31.7732C17.2452 31.4709 17.2452 30.9807 17.5476 30.6784L24.2259 24L17.5476 17.3216C17.2452 17.0193 17.2452 16.5291 17.5476 16.2268Z" fill="white"/>
</svg>
