<svg width="21" height="20" viewBox="0 0 21 20" fill="none" xmlns="http://www.w3.org/2000/svg">
<path fill-rule="evenodd" clip-rule="evenodd" d="M17.1246 5.90864C17.1333 5.25772 16.8893 4.60407 16.3926 4.1074C15.896 3.61074 15.2423 3.36673 14.5914 3.37539C14.5912 3.3754 14.5917 3.37539 14.5914 3.37539C14.2316 3.38029 13.872 3.46237 13.5409 3.62164C13.4222 3.67871 13.3072 3.7457 13.1969 3.8226C13.1544 3.85222 13.0998 3.85898 13.052 3.83915C13.0042 3.81933 12.9703 3.7759 12.9612 3.72497C12.9376 3.59262 12.9036 3.46388 12.8601 3.33962C12.7386 2.99289 12.5428 2.68106 12.2919 2.42321C12.2917 2.42303 12.292 2.42339 12.2919 2.42321C11.8377 1.95682 11.2025 1.66663 10.5001 1.66663C9.79769 1.66663 9.16295 1.95629 8.70881 2.42268C8.70864 2.42286 8.70898 2.42251 8.70881 2.42268C8.45788 2.68053 8.26161 2.99288 8.14011 3.33961C8.09657 3.46388 8.06256 3.59262 8.03897 3.72497C8.02989 3.7759 7.99599 3.81933 7.9482 3.83915C7.90038 3.85898 7.84573 3.85222 7.80326 3.8226C7.693 3.7457 7.57792 3.67871 7.45927 3.62164C7.12818 3.46237 6.76926 3.3803 6.40949 3.3754C6.40925 3.3754 6.40974 3.37541 6.40949 3.3754C5.75858 3.36674 5.10419 3.61074 4.60752 4.1074C4.11086 4.60407 3.86686 5.25772 3.87552 5.90864C3.87551 5.90839 3.87552 5.90888 3.87552 5.90864C3.88041 6.2684 3.96249 6.62805 4.12176 6.95914C4.17883 7.07779 4.24582 7.19287 4.32272 7.30314C4.35234 7.3456 4.3591 7.40026 4.33927 7.44808C4.31945 7.49587 4.27602 7.52977 4.22509 7.53885C4.09274 7.56244 3.96399 7.59645 3.83973 7.64C3.493 7.76149 3.18118 7.95724 2.92333 8.20817C2.92316 8.20835 2.92351 8.208 2.92333 8.20817C2.45694 8.66232 2.16675 9.29757 2.16675 9.99996C2.16675 10.7024 2.45641 11.3371 2.92281 11.7912C2.92263 11.7911 2.92298 11.7914 2.92281 11.7912C3.18065 12.0422 3.493 12.2384 3.83972 12.3599C3.96399 12.4035 4.09274 12.4375 4.22509 12.4611C4.27602 12.4701 4.31945 12.5041 4.33927 12.5518C4.3591 12.5997 4.35234 12.6543 4.32273 12.6968C4.24582 12.807 4.17883 12.9221 4.12175 13.0408C3.96249 13.3719 3.88042 13.7308 3.87553 14.0905C3.87552 14.0908 3.87553 14.0903 3.87553 14.0905C3.86687 14.7415 4.11086 15.3958 4.60752 15.8925C5.10419 16.3892 5.75784 16.6332 6.40876 16.6245C6.40851 16.6245 6.409 16.6245 6.40876 16.6245C6.76852 16.6196 7.12816 16.5375 7.45924 16.3783C7.5779 16.3212 7.69299 16.2542 7.80326 16.1773C7.84572 16.1477 7.90038 16.1409 7.9482 16.1608C7.99599 16.1806 8.0299 16.224 8.03897 16.275C8.06257 16.4073 8.09658 16.5361 8.14012 16.6603C8.26162 17.007 8.45737 17.3189 8.7083 17.5767C8.70812 17.5765 8.70847 17.5769 8.7083 17.5767C9.16244 18.0431 9.79769 18.3333 10.5001 18.3333C11.2025 18.3333 11.8372 18.0436 12.2914 17.5772C12.2912 17.5774 12.2915 17.5771 12.2914 17.5772C12.5423 17.3194 12.7385 17.007 12.86 16.6603C12.9036 16.5361 12.9376 16.4073 12.9612 16.275C12.9703 16.224 13.0042 16.1806 13.052 16.1608C13.0998 16.1409 13.1544 16.1477 13.1969 16.1773C13.3072 16.2542 13.4223 16.3212 13.5409 16.3783C13.872 16.5375 14.2309 16.6196 14.5907 16.6245C14.5904 16.6245 14.5909 16.6245 14.5907 16.6245C15.2416 16.6332 15.896 16.3892 16.3926 15.8925C16.8893 15.3958 17.1333 14.7422 17.1246 14.0913C17.1246 14.091 17.1247 14.0915 17.1246 14.0913C17.1198 13.7315 17.0377 13.3719 16.8784 13.0408C16.8213 12.9221 16.7543 12.8071 16.6774 12.6968C16.6478 12.6543 16.6411 12.5997 16.6609 12.5518C16.6807 12.5041 16.7241 12.4701 16.7751 12.4611C16.9074 12.4375 17.0362 12.4035 17.1604 12.3599C17.5072 12.2384 17.819 12.0427 18.0768 11.7917C18.0767 11.7919 18.077 11.7916 18.0768 11.7917C18.5432 11.3376 18.8334 10.7024 18.8334 9.99996C18.8334 9.29757 18.5437 8.66283 18.0774 8.20869C18.0772 8.20852 18.0775 8.20886 18.0774 8.20869C17.8195 7.95776 17.5072 7.76149 17.1604 7.64C17.0362 7.59645 16.9074 7.56244 16.7751 7.53885C16.7241 7.52977 16.6807 7.49587 16.6609 7.44808C16.6411 7.40026 16.6478 7.3456 16.6774 7.30314C16.7543 7.19287 16.8213 7.07778 16.8784 6.95913C17.0377 6.62804 17.1198 6.2684 17.1246 5.90864C17.1247 5.90839 17.1246 5.90888 17.1246 5.90864ZM15.2141 5.28591C14.9254 4.99723 14.4743 4.96366 14.1503 5.18964C13.6587 5.5325 13.0059 5.62431 12.4135 5.3787C11.8228 5.13372 11.4257 4.60816 11.3204 4.01745C11.2511 3.62854 10.9083 3.33329 10.5001 3.33329C10.0918 3.33329 9.7491 3.62854 9.67977 4.01745C9.57448 4.60816 9.17739 5.13371 8.58662 5.37869C7.99431 5.62431 7.34145 5.53249 6.84985 5.18964C6.52583 4.96366 6.07472 4.99723 5.78604 5.28591C5.49735 5.57459 5.46378 6.02571 5.68976 6.34973C6.03262 6.84133 6.12443 7.49419 5.87882 8.08649C5.63384 8.67727 5.10828 9.07436 4.51757 9.17965C4.12866 9.24898 3.83341 9.5917 3.83341 9.99996C3.83341 10.4082 4.12866 10.7509 4.51757 10.8203C5.10828 10.9256 5.63384 11.3227 5.87882 11.9134C6.12443 12.5057 6.03262 13.1586 5.68976 13.6502C5.46378 13.9742 5.49735 14.4253 5.78604 14.714C6.07472 15.0027 6.52583 15.0363 6.84985 14.8103C7.34144 14.4674 7.9943 14.3756 8.58661 14.6212C9.17738 14.8662 9.57448 15.3918 9.67978 15.9825C9.7491 16.3714 10.0918 16.6666 10.5001 16.6666C10.9083 16.6666 11.2511 16.3714 11.3204 15.9825C11.4257 15.3918 11.8228 14.8662 12.4135 14.6212C13.0059 14.3756 13.6587 14.4674 14.1503 14.8103C14.4743 15.0363 14.9254 15.0027 15.2141 14.714C15.5028 14.4253 15.5364 13.9742 15.3104 13.6502C14.9675 13.1586 14.8757 12.5057 15.1213 11.9134C15.3663 11.3227 15.8919 10.9256 16.4826 10.8203C16.8715 10.7509 17.1667 10.4082 17.1667 9.99996C17.1667 9.5917 16.8715 9.24898 16.4826 9.17965C15.8919 9.07436 15.3663 8.67727 15.1213 8.08649C14.8757 7.49419 14.9676 6.84132 15.3104 6.34972C15.5364 6.02571 15.5028 5.5746 15.2141 5.28591Z" fill="#72767C"/>
<path fill-rule="evenodd" clip-rule="evenodd" d="M10.5001 11.6666C11.4206 11.6666 12.1667 10.9204 12.1667 9.99996C12.1667 9.07948 11.4206 8.33329 10.5001 8.33329C9.57961 8.33329 8.83341 9.07948 8.83341 9.99996C8.83341 10.9204 9.57961 11.6666 10.5001 11.6666ZM10.5001 13.3333C12.341 13.3333 13.8334 11.8409 13.8334 9.99996C13.8334 8.15901 12.341 6.66663 10.5001 6.66663C8.65913 6.66663 7.16675 8.15901 7.16675 9.99996C7.16675 11.8409 8.65913 13.3333 10.5001 13.3333Z" fill="#72767C"/>
</svg>
